<?xml version="1.0" encoding="iso-8859-1"?>
<!-- Generator: Adobe Illustrator 19.0.0, SVG Export Plug-In . SVG Version: 6.00 Build 0)  -->
<svg version="1.1" id="Layer_1" xmlns="http://www.w3.org/2000/svg" xmlns:xlink="http://www.w3.org/1999/xlink" x="0px" y="0px"
	 viewBox="0 0 503.799 503.799" style="enable-background:new 0 0 503.799 503.799;" xml:space="preserve">
<g>
	<g>
		<path d="M503.529,278.848c-1.469-12.481-10.433-35.143-53.987-46.777c-59.795-15.964-101.158-37.737-101.569-37.964
			c-2.006-1.058-4.339-1.276-6.497-0.571c-2.157,0.688-3.937,2.216-4.952,4.23l-14.051,28.11
			c-39.29-6.052-258.308-40.641-301.644-65.225c-2.073-1.175-4.532-1.427-6.782-0.672c-2.258,0.755-4.088,2.417-5.044,4.591
			c-9.258,21.059-17.316,87.367,7.688,123.568v30.896c0,2.409,1.032,4.7,2.837,6.295c0.546,0.478,8.931,7.747,23.476,13.136
			c8.721,3.232,19.657,5.783,32.441,5.783c27.447,0,61.876-2.535,92.252-4.767c26.28-1.93,51.166-3.802,67.173-3.66
			c8.268,0.05,19.683,1.427,32.894,3.022c41.43,5.003,103.995,12.557,164.226-9.829c6.438-1.528,44.393-10.71,57.503-17.794
			c1.259-0.688,2.484-1.612,3.685-2.644c0.361-0.319,0.705-0.663,1.058-1.007c0.856-0.831,1.662-1.746,2.443-2.745
			c0.269-0.344,0.546-0.671,0.797-1.032C501.884,297.615,504.713,288.836,503.529,278.848z M486.776,285.596
			c-0.059,0.63-0.134,1.242-0.235,1.779c-0.21,1.024-0.495,1.947-0.814,2.829c-0.185,0.52-0.361,1.074-0.571,1.536
			c-0.47,0.999-0.99,1.88-1.519,2.594c-0.176,0.243-0.353,0.436-0.529,0.638c-0.562,0.646-1.125,1.217-1.603,1.477
			c-9.804,5.305-42.219,13.597-53.886,16.35c-0.344,0.084-0.688,0.185-1.016,0.311c-56.547,21.177-116.887,13.891-156.831,9.065
			c-13.715-1.654-25.575-3.08-34.808-3.139c-16.804-0.21-41.883,1.746-68.49,3.702c-30.09,2.216-64.193,4.726-91.027,4.726
			c-2.627,0-5.162-0.134-7.596-0.378c-0.881-0.084-1.67-0.252-2.526-0.369c-1.502-0.201-3.047-0.378-4.465-0.655
			c-0.739-0.143-1.402-0.344-2.115-0.504c-1.444-0.327-2.904-0.63-4.247-1.016c-0.554-0.159-1.032-0.344-1.57-0.512
			c-1.41-0.436-2.829-0.873-4.121-1.351c-0.26-0.092-0.478-0.201-0.73-0.302c-1.494-0.571-2.938-1.15-4.247-1.746
			c-0.478-0.218-0.856-0.436-1.309-0.646c-1.007-0.487-2.04-0.974-2.921-1.444c-0.965-0.512-1.771-0.99-2.585-1.477
			c-0.277-0.159-0.621-0.344-0.881-0.504c-1.024-0.621-1.914-1.2-2.652-1.712v-14.143c9.644,4.885,23.98,9.938,41.967,9.938
			c27.455,0,61.902-2.535,92.286-4.767c26.255-1.93,50.898-3.92,67.139-3.66c8.268,0.05,19.683,1.427,32.894,3.022
			c41.438,5.002,104.003,12.565,164.226-9.82c6.01-1.435,39.516-9.543,54.49-16.325c0.193,0.982,0.294,1.905,0.361,2.795
			C486.927,283.187,486.91,284.429,486.776,285.596z"/>
	</g>
</g>
<g>
</g>
<g>
</g>
<g>
</g>
<g>
</g>
<g>
</g>
<g>
</g>
<g>
</g>
<g>
</g>
<g>
</g>
<g>
</g>
<g>
</g>
<g>
</g>
<g>
</g>
<g>
</g>
<g>
</g>
</svg>
